<svg width="25" height="24" viewBox="0 0 25 24" fill="none" xmlns="http://www.w3.org/2000/svg">
<path d="M2 13.5C1.17157 13.5 0.5 12.8284 0.5 12C0.5 11.1716 1.17157 10.5 2 10.5L2 13.5ZM24.0607 10.9393C24.6464 11.5251 24.6464 12.4749 24.0607 13.0607L14.5147 22.6066C13.9289 23.1924 12.9792 23.1924 12.3934 22.6066C11.8076 22.0208 11.8076 21.0711 12.3934 20.4853L20.8787 12L12.3934 3.51472C11.8076 2.92893 11.8076 1.97919 12.3934 1.3934C12.9792 0.807611 13.9289 0.807611 14.5147 1.3934L24.0607 10.9393ZM2 10.5L23 10.5V13.5L2 13.5L2 10.5Z" fill="white"/>
</svg>
