<svg width="28" height="23" viewBox="0 0 28 23" fill="none" xmlns="http://www.w3.org/2000/svg">
<path d="M24.1237 0.0629876C23.974 0.117249 23.8913 0.16801 23.7963 0.260781C23.6748 0.383307 23.6132 0.48658 23.5657 0.651115C23.4583 1.03095 23.6854 1.45979 24.0744 1.61207C24.2258 1.67159 24.4475 1.67859 24.5972 1.62783C24.8436 1.54731 25.0249 1.38277 25.1217 1.15522C25.171 1.03795 25.1763 1.00644 25.1763 0.848908C25.1763 0.689624 25.171 0.661618 25.1182 0.53559C25.0724 0.425316 25.0354 0.372805 24.9439 0.280035C24.7697 0.104997 24.5954 0.0349815 24.3437 0.0367318C24.2592 0.0367318 24.1641 0.0489845 24.1237 0.0629876Z" fill="white"/>
<path d="M1.68452 1.68912C1.5701 1.72937 1.24622 1.87991 1.17054 1.92892C0.785051 2.17922 0.477015 2.51354 0.283393 2.89338C0.153138 3.14718 0.0792092 3.36073 0.0440051 3.58303C0.0369643 3.62504 0.0246429 3.65829 0.0158418 3.65829C0.00704082 3.65829 0 3.81233 0 4.01712C0 4.22892 0.00704082 4.37595 0.0158418 4.37595C0.0264031 4.37595 0.0387245 4.41271 0.0440051 4.45822C0.0651276 4.61225 0.156658 4.89581 0.242908 5.07435C0.489337 5.58721 0.922347 6.01081 1.45041 6.25586C1.52434 6.29086 1.59651 6.31887 1.61059 6.31887C1.67043 6.31887 1.7074 6.38539 1.7074 6.48866C1.7074 6.54467 1.71972 6.74422 1.7338 6.93151C1.76725 7.38485 1.79365 7.77169 1.81301 8.11301C1.82181 8.26705 1.83765 8.49985 1.84645 8.62937C1.85702 8.7589 1.87462 8.9952 1.88518 9.15449C1.92742 9.81263 1.95383 10.2117 1.97143 10.4848C1.98023 10.6441 1.99607 10.8716 2.00663 10.9924C2.01543 11.1132 2.02776 11.2935 2.03304 11.395C2.03832 11.4965 2.05416 11.7398 2.06824 11.9376C2.08232 12.1354 2.1052 12.4855 2.12105 12.7165C2.13513 12.9476 2.15977 13.3064 2.17385 13.5129C2.18793 13.7195 2.21082 14.0783 2.22666 14.3094C2.2425 14.5404 2.26186 14.8397 2.27242 14.9745C2.28122 15.1093 2.29707 15.3491 2.30587 15.5084C2.31467 15.6677 2.33051 15.8987 2.34107 16.0247C2.34987 16.149 2.36747 16.3818 2.37628 16.5411C2.38508 16.7004 2.40092 16.9437 2.41148 17.0837C2.42028 17.2237 2.4414 17.5266 2.45548 17.7576C2.47133 17.9887 2.49069 18.2757 2.49949 18.3965C2.50829 18.5173 2.52061 18.6976 2.52589 18.7991C2.53117 18.9006 2.54702 19.1439 2.5611 19.3417C2.57518 19.5395 2.59806 19.8861 2.6139 20.1119C2.68959 21.2601 2.70015 21.3844 2.7424 21.5472C2.9061 22.1826 3.37255 22.6849 3.98686 22.8915C4.07487 22.9212 4.17872 22.951 4.22097 22.9562C4.26145 22.9632 4.2949 22.9755 4.2949 22.9842C4.2949 22.993 7.30133 23 11.8286 23C16.3558 23 19.3622 22.993 19.3622 22.9842C19.3622 22.9755 19.3957 22.9632 19.4379 22.9562C19.4784 22.951 19.584 22.9212 19.6703 22.8915C20.3972 22.6464 20.8989 22.004 20.9658 21.2321C20.9834 21.0273 21.0028 20.7455 21.096 19.333C21.1101 19.1107 21.1313 18.8113 21.1418 18.6678C21.1506 18.5225 21.1665 18.2792 21.1753 18.1252C21.1841 17.9712 21.1999 17.7349 21.2105 17.6001C21.2333 17.2798 21.2597 16.9069 21.2897 16.4133C21.3038 16.1945 21.3196 15.9705 21.3249 15.9145C21.3302 15.8602 21.3425 15.6799 21.3513 15.5171C21.3601 15.3526 21.3759 15.1058 21.3865 14.9658C21.3953 14.8257 21.4164 14.5264 21.4305 14.3006C21.4463 14.0748 21.4692 13.7195 21.4833 13.5129C21.4974 13.3064 21.5203 12.9476 21.5361 12.7165C21.5519 12.4855 21.5748 12.1301 21.5889 11.9288C21.603 11.7258 21.6188 11.486 21.6241 11.395C21.6294 11.304 21.6417 11.1254 21.6505 11.0011C21.6611 10.8751 21.6769 10.6441 21.6857 10.4848C21.7438 9.58858 21.7561 9.40129 21.7737 9.15449C21.7825 9.00571 21.8036 8.70114 21.8177 8.48059C21.8318 8.25829 21.8529 7.96773 21.8635 7.83295C21.8723 7.69817 21.8881 7.46537 21.8969 7.31659C21.9321 6.72146 21.9533 6.4309 21.9638 6.38889C21.9726 6.35738 21.9973 6.33813 22.0466 6.32237C22.1715 6.28211 22.3951 6.16659 22.5588 6.05631C22.9742 5.78325 23.3297 5.33516 23.497 4.88181C23.5392 4.76453 23.5973 4.54924 23.6131 4.44946C23.6202 4.40921 23.6325 4.37595 23.6413 4.37595C23.6501 4.37595 23.6571 4.22192 23.6571 4.01712C23.6571 3.81233 23.6501 3.65829 23.6413 3.65829C23.6325 3.65829 23.6202 3.62504 23.6131 3.58303C23.5973 3.48326 23.5375 3.25396 23.5163 3.2172C23.5058 3.19969 23.4987 3.17519 23.4987 3.16294C23.4987 3.13143 23.3315 2.79886 23.2664 2.69908C22.9443 2.21773 22.4884 1.8624 21.9744 1.69086L21.8353 1.64536L11.8198 1.64711H1.80421L1.68452 1.68912ZM21.4041 3.2347C21.8494 3.37298 22.1011 3.82633 21.9673 4.24992C21.8864 4.50548 21.7016 4.69802 21.4481 4.78904L21.3319 4.83105H11.8286H2.32523L2.20906 4.78904C1.62643 4.57899 1.46625 3.84383 1.91334 3.42724C2.01015 3.33797 2.10872 3.28196 2.24426 3.23645C2.32699 3.20844 2.98531 3.2067 11.8198 3.20494C20.7792 3.20319 21.3126 3.20494 21.4041 3.2347ZM6.13255 6.48691C6.15895 6.49741 6.16071 6.73196 6.16071 8.9777V11.4597L6.20296 11.668C6.24872 11.8991 6.29625 12.0461 6.37546 12.2177C6.62189 12.7515 7.0901 13.1961 7.63049 13.4114C7.99485 13.5567 8.17615 13.5882 8.59508 13.5795C8.92776 13.5707 8.96648 13.5654 9.27628 13.4674C9.95748 13.2539 10.5331 12.6885 10.7689 11.9989C10.8781 11.6855 10.8833 11.6365 10.8957 10.9049C10.908 10.2065 10.9115 10.1732 10.9907 10.0209C11.0629 9.8774 11.2407 9.73386 11.4149 9.67435C11.5346 9.63409 11.7265 9.63584 11.855 9.6796C12.0908 9.76012 12.2669 9.96667 12.332 10.2397C12.3514 10.3167 12.3549 10.7596 12.3566 12.4189C12.3566 13.5637 12.3654 14.5789 12.3725 14.6717C12.4218 15.2091 12.6594 15.7062 13.0607 16.1035C13.4444 16.4851 13.8827 16.7004 14.4354 16.7774C14.703 16.8142 14.828 16.8107 15.173 16.7529C15.7221 16.6601 16.259 16.3275 16.6093 15.8672C16.8592 15.5381 16.9842 15.2476 17.0757 14.7907C17.0951 14.6997 17.1004 13.8543 17.1039 10.5898C17.1074 8.23204 17.1162 6.50091 17.125 6.49391C17.1338 6.48866 17.8485 6.48516 18.7145 6.48516H20.2864V6.59893C20.2864 6.66195 20.2758 6.85449 20.2635 7.02778C20.2371 7.39711 20.2019 7.93272 20.1631 8.4981C20.1491 8.71864 20.1279 9.01796 20.1174 9.16324C20.1086 9.30677 20.0927 9.55182 20.0839 9.70586C20.0751 9.85989 20.0593 10.0962 20.0487 10.231C20.0382 10.3658 20.0223 10.5986 20.0135 10.7473C19.9818 11.2322 19.9449 11.7818 19.9255 12.0776C19.9167 12.2369 19.9009 12.468 19.8903 12.594C19.8815 12.7183 19.8692 12.9003 19.8639 12.9966C19.8586 13.0928 19.8428 13.3326 19.8287 13.5304C19.8146 13.7282 19.7917 14.0783 19.7759 14.3094C19.7618 14.5404 19.7372 14.8992 19.7231 15.1058C19.709 15.3123 19.6861 15.6712 19.6703 15.9022C19.6544 16.1333 19.6351 16.4326 19.6245 16.5674C19.6157 16.7021 19.5999 16.9454 19.5911 17.11C19.5805 17.2728 19.5664 17.4986 19.5576 17.6088C19.5471 17.7191 19.5347 17.9011 19.5295 18.0114C19.5242 18.1217 19.5119 18.3072 19.5031 18.4228C19.4925 18.5383 19.4784 18.7658 19.4679 18.9304C19.4591 19.0932 19.4432 19.3347 19.4344 19.4642C19.4239 19.5938 19.4045 19.9018 19.3886 20.1469C19.3728 20.3919 19.3482 20.7263 19.3358 20.889C19.3112 21.2111 19.3006 21.2374 19.1862 21.3144L19.1281 21.3546H11.8286H4.52901L4.47092 21.3144C4.35475 21.2374 4.34594 21.2111 4.3213 20.889C4.30722 20.7263 4.28434 20.3919 4.2685 20.1469C4.25265 19.9018 4.23329 19.5938 4.22273 19.4642C4.21393 19.3347 4.19809 19.0932 4.18929 18.9304C4.18048 18.7658 4.16816 18.5873 4.16288 18.533C4.1576 18.477 4.14176 18.253 4.12768 18.0342C4.06255 17.0067 4.04847 16.7896 4.03967 16.7074C4.03439 16.6584 4.02207 16.4851 4.01327 16.3223C4.00446 16.1578 3.98862 15.911 3.97806 15.7709C3.96046 15.5224 3.93406 15.1268 3.88125 14.3129C3.86541 14.0906 3.84253 13.7335 3.82844 13.5217C3.77564 12.7445 3.76508 12.6062 3.74923 12.3139C3.74043 12.1494 3.72459 11.9288 3.71579 11.8238C3.70523 11.717 3.69291 11.5368 3.68763 11.4212C3.68235 11.3057 3.67003 11.1202 3.66122 11.0099C3.65066 10.8996 3.63482 10.6738 3.62602 10.511C3.61722 10.3465 3.60138 10.0944 3.59082 9.95091C3.56441 9.57108 3.52393 8.96195 3.49401 8.4981C3.43064 7.55464 3.41304 7.30434 3.38663 6.928C3.37079 6.70921 3.36199 6.51842 3.36727 6.50266C3.37783 6.47991 3.52745 6.47641 4.74199 6.47641C5.49184 6.47641 6.11671 6.48166 6.13255 6.48691ZM15.4335 6.49391C15.4493 6.49391 15.4546 7.30434 15.4546 10.49C15.4546 14.796 15.4599 14.5772 15.3666 14.7645C15.2258 15.0568 14.8561 15.2196 14.5463 15.1303C14.3404 15.0708 14.1714 14.9307 14.0764 14.74L14.02 14.6244L14.0095 12.4102C14.0024 11.0169 13.9919 10.147 13.9795 10.0647C13.9619 9.94566 13.925 9.78288 13.8704 9.60084C13.807 9.39254 13.6169 9.05472 13.4444 8.85167C13.1681 8.5226 12.7527 8.24254 12.3496 8.11301C11.304 7.77869 10.1493 8.21628 9.58255 9.16324C9.42765 9.4223 9.34316 9.6621 9.27628 10.0297C9.26396 10.0962 9.25163 10.399 9.24635 10.7561C9.23755 11.4352 9.23227 11.4685 9.12138 11.6365C8.88023 12.0024 8.34337 12.0531 8.02477 11.7398C7.93148 11.6488 7.89628 11.5928 7.84699 11.4562C7.81707 11.3757 7.81531 11.2322 7.81531 8.93394C7.81531 7.32534 7.82059 6.49566 7.83291 6.49041C7.84171 6.48691 9.55087 6.48691 11.6297 6.48866C13.7102 6.49216 15.4211 6.49391 15.4335 6.49391Z" fill="white"/>
<path d="M26.5843 2.59054C26.3959 2.62905 26.1917 2.77258 26.0756 2.95287C25.9911 3.0824 25.9629 3.17342 25.9506 3.34495C25.9418 3.46923 25.9471 3.51649 25.9788 3.61976C26.0492 3.84206 26.2005 4.0171 26.4188 4.12562C26.5508 4.19039 26.5543 4.19214 26.7638 4.19214H26.975L27.1158 4.12212C27.1986 4.08011 27.2919 4.0171 27.3447 3.96459C27.4362 3.87182 27.5348 3.70728 27.5559 3.60926C27.5612 3.57951 27.5753 3.55325 27.5841 3.55325C27.5929 3.55325 27.5999 3.47798 27.5999 3.38696C27.5999 3.29594 27.5929 3.22068 27.5841 3.22068C27.5753 3.22068 27.5612 3.19442 27.5559 3.16291C27.5172 2.98613 27.3253 2.75508 27.1387 2.66231C26.9627 2.57654 26.7796 2.55378 26.5843 2.59054Z" fill="white"/>
<path d="M24.7625 5.16366C24.6323 5.18642 24.451 5.28444 24.3419 5.39296C24.2222 5.51199 24.1447 5.66427 24.1148 5.84106C24.0567 6.18763 24.2486 6.54471 24.5812 6.704C24.7009 6.76176 24.7115 6.76351 24.9245 6.76526H25.1445L25.2818 6.69699C25.787 6.44494 25.8996 5.7903 25.5071 5.39296C25.3117 5.19867 25.0477 5.1164 24.7625 5.16366Z" fill="white"/>
</svg>
