<svg width="22" height="22" viewBox="0 0 22 22" fill="none" xmlns="http://www.w3.org/2000/svg">
<path d="M21.4002 11.3333V21.1794C21.4002 21.3971 21.3138 21.6058 21.1599 21.7596C21.006 21.9135 20.7973 22 20.5797 22H0.887407C0.669794 22 0.461093 21.9135 0.307217 21.7596C0.153341 21.6058 0.0668945 21.3971 0.0668945 21.1794V1.48714C0.0668945 1.26953 0.153341 1.06082 0.307217 0.906949C0.461093 0.753073 0.669794 0.666626 0.887407 0.666626H10.7336C10.9512 0.666626 11.1599 0.753073 11.3138 0.906949C11.4676 1.06082 11.5541 1.26953 11.5541 1.48714C11.5541 1.70475 11.4676 1.91345 11.3138 2.06733C11.1599 2.2212 10.9512 2.30765 10.7336 2.30765H1.70792V20.3589H19.7592V11.3333C19.7592 11.1157 19.8456 10.907 19.9995 10.7531C20.1534 10.5992 20.3621 10.5128 20.5797 10.5128C20.7973 10.5128 21.006 10.5992 21.1599 10.7531C21.3138 10.907 21.4002 11.1157 21.4002 11.3333ZM6.18792 11.44L15.8946 1.72509C16.4843 1.13535 17.2842 0.804046 18.1182 0.804046C18.9522 0.804046 19.752 1.13535 20.3418 1.72509C20.9315 2.31482 21.2628 3.11467 21.2628 3.94868C21.2628 4.78269 20.9315 5.58253 20.3418 6.17227L10.6269 15.8789C10.5393 15.9674 10.4326 16.0347 10.3151 16.0759L5.26074 17.8482C5.1739 17.8797 5.08236 17.8963 4.98997 17.8974C4.85923 17.8969 4.7305 17.8651 4.61451 17.8048C4.49853 17.7444 4.39864 17.6572 4.32318 17.5505C4.24772 17.4437 4.19887 17.3204 4.18069 17.191C4.16251 17.0615 4.17554 16.9295 4.21869 16.8061L5.991 11.7518C6.03213 11.6342 6.09947 11.5276 6.18792 11.44ZM6.32741 15.7394L9.60946 14.5907L19.1766 5.00714C19.4574 4.72642 19.6151 4.34568 19.6151 3.94868C19.6151 3.55168 19.4574 3.17094 19.1766 2.89022C18.8959 2.60949 18.5152 2.45179 18.1182 2.45179C17.7212 2.45179 17.3404 2.60949 17.0597 2.89022L7.45151 12.4656L6.32741 15.7394Z" fill="white"/>
</svg>
