<svg width="12" height="10" viewBox="0 0 12 10" fill="none" xmlns="http://www.w3.org/2000/svg">
<path d="M5.74913 9.98L0.871812 5.10268C0.482765 4.71363 0.2234 4.26133 0.093718 3.74576C-0.0328013 3.2302 -0.0312198 2.71779 0.0984624 2.20855C0.228145 1.69615 0.485928 1.25017 0.871812 0.870611C1.26718 0.481564 1.71791 0.223781 2.22399 0.0972619C2.73323 -0.0324206 3.24089 -0.0324206 3.74696 0.0972619C4.2562 0.226944 4.70851 0.484727 5.10388 0.870611L5.74913 1.49688L6.39438 0.870611C6.79291 0.484727 7.24522 0.226944 7.7513 0.0972619C8.25738 -0.0324206 8.76345 -0.0324206 9.26953 0.0972619C9.77877 0.223781 10.2311 0.481564 10.6264 0.870611C11.0123 1.25017 11.2701 1.69615 11.3998 2.20855C11.5295 2.71779 11.5295 3.2302 11.3998 3.74576C11.2733 4.26133 11.0155 4.71363 10.6264 5.10268L5.74913 9.98Z" fill="#D73F51"/>
</svg>
