<svg width="7" height="6" viewBox="0 0 7 6" fill="none" xmlns="http://www.w3.org/2000/svg">
<path d="M3.44248 5.97585L0.522026 3.0554C0.289071 2.82244 0.133768 2.55161 0.0561167 2.2429C-0.0196408 1.93419 -0.0186939 1.62737 0.0589576 1.32244C0.136609 1.01562 0.290965 0.748579 0.522026 0.521307C0.758768 0.288352 1.02865 0.133996 1.33168 0.0582387C1.63661 -0.0194129 1.94059 -0.0194129 2.24362 0.0582387C2.54854 0.13589 2.81937 0.290246 3.05612 0.521307L3.44248 0.896307L3.82884 0.521307C4.06748 0.290246 4.33831 0.13589 4.64134 0.0582387C4.94437 -0.0194129 5.2474 -0.0194129 5.55044 0.0582387C5.85536 0.133996 6.12619 0.288352 6.36294 0.521307C6.594 0.748579 6.74835 1.01562 6.826 1.32244C6.90365 1.62737 6.90365 1.93419 6.826 2.2429C6.75025 2.55161 6.59589 2.82244 6.36294 3.0554L3.44248 5.97585Z" fill="#D73F51"/>
</svg>
