<svg width="25" height="25" viewBox="0 0 25 25" fill="none" xmlns="http://www.w3.org/2000/svg">
<path d="M22.9167 3.125H2.08341C1.50812 3.125 1.04175 3.59137 1.04175 4.16667V20.8333C1.04175 21.4086 1.50812 21.875 2.08341 21.875H22.9167C23.492 21.875 23.9584 21.4086 23.9584 20.8333V4.16667C23.9584 3.59137 23.492 3.125 22.9167 3.125Z" stroke="#1E1E1E" stroke-width="1.5"/>
<path d="M1.04175 21.875L8.64591 14.2708C8.74275 14.1732 8.85796 14.0957 8.9849 14.0428C9.11183 13.9899 9.24799 13.9627 9.3855 13.9627C9.52301 13.9627 9.65916 13.9899 9.7861 14.0428C9.91304 14.0957 10.0282 14.1732 10.1251 14.2708L13.8542 18.0208C13.9511 18.1185 14.0663 18.196 14.1932 18.2488C14.3202 18.3017 14.4563 18.329 14.5938 18.329C14.7313 18.329 14.8675 18.3017 14.9944 18.2488C15.1214 18.196 15.2366 18.1185 15.3334 18.0208L16.9792 16.375C17.0761 16.2774 17.1913 16.1999 17.3182 16.147C17.4452 16.0941 17.5813 16.0669 17.7188 16.0669C17.8563 16.0669 17.9925 16.0941 18.1194 16.147C18.2464 16.1999 18.3616 16.2774 18.4584 16.375L22.9167 20.8333" stroke="#1E1E1E" stroke-width="1.5"/>
<path d="M16.6666 10.4167C17.8172 10.4167 18.7499 9.48393 18.7499 8.33333C18.7499 7.18274 17.8172 6.25 16.6666 6.25C15.516 6.25 14.5833 7.18274 14.5833 8.33333C14.5833 9.48393 15.516 10.4167 16.6666 10.4167Z" fill="#1E1E1E"/>
</svg>
