<svg width="12" height="12" viewBox="0 0 12 12" fill="none" xmlns="http://www.w3.org/2000/svg">
<g clip-path="url(#clip0_97_4289)">
<path d="M11 1.5H1C0.723858 1.5 0.5 1.72386 0.5 2V10C0.5 10.2761 0.723858 10.5 1 10.5H11C11.2761 10.5 11.5 10.2761 11.5 10V2C11.5 1.72386 11.2761 1.5 11 1.5Z" stroke="white" stroke-width="1.5"/>
<path d="M0.5 10.5L4.15 6.85005C4.19648 6.80318 4.25178 6.76599 4.31271 6.7406C4.37364 6.71522 4.43899 6.70215 4.505 6.70215C4.57101 6.70215 4.63636 6.71522 4.69729 6.7406C4.75822 6.76599 4.81352 6.80318 4.86 6.85005L6.65 8.65005C6.69648 8.69691 6.75178 8.73411 6.81271 8.75949C6.87364 8.78488 6.93899 8.79795 7.005 8.79795C7.07101 8.79795 7.13636 8.78488 7.19729 8.75949C7.25822 8.73411 7.31352 8.69691 7.36 8.65005L8.15 7.86005C8.19648 7.81318 8.25178 7.77599 8.31271 7.7506C8.37364 7.72522 8.43899 7.71215 8.505 7.71215C8.57101 7.71215 8.63636 7.72522 8.69729 7.7506C8.75822 7.77599 8.81352 7.81318 8.86 7.86005L11 10" stroke="white" stroke-width="1.5"/>
<path d="M8 5C8.55228 5 9 4.55228 9 4C9 3.44772 8.55228 3 8 3C7.44772 3 7 3.44772 7 4C7 4.55228 7.44772 5 8 5Z" fill="white"/>
</g>
<defs>
<clipPath id="clip0_97_4289">
<rect width="12" height="12" fill="white"/>
</clipPath>
</defs>
</svg>
