<svg width="23" height="19" viewBox="0 0 23 19" fill="none" xmlns="http://www.w3.org/2000/svg">
<path d="M23.0002 3.94909C22.9105 3.94318 22.8207 3.92544 22.7369 3.92544C17.5659 3.92544 12.401 3.92544 7.23001 3.91953C7.02652 3.91953 6.94274 3.96682 6.89486 4.17964C6.52978 5.7817 5.13529 6.88717 3.48944 6.88126C1.84958 6.88126 0.455095 5.76396 0.0840312 4.16782C-0.352867 2.26427 0.993737 0.319346 2.9508 0.0414986C4.83006 -0.224525 6.4819 0.898686 6.90683 2.74312C6.94274 2.90273 6.9966 2.95594 7.16418 2.95594C12.377 2.95002 17.5899 2.95002 22.8027 2.95002C22.8686 2.95002 22.9344 2.9382 23.0002 2.92638C23.0002 3.26925 23.0002 3.60622 23.0002 3.94909ZM3.50141 5.89993C4.87794 5.89402 5.99114 4.78854 5.98515 3.42887C5.98515 2.05737 4.85999 0.969626 3.45952 0.975537C2.10094 0.981449 0.993737 2.09284 0.999722 3.4466C1.00571 4.80628 2.12488 5.90584 3.50141 5.89993Z" fill="white"/>
<path d="M23.0003 16.0501C22.4078 16.0501 21.8213 16.0442 21.2288 16.0442C19.2897 16.0442 17.3566 16.0442 15.4175 16.0442C15.3277 16.0442 15.2379 16.0442 15.1362 16.0442C14.9566 17.0492 14.4659 17.8532 13.616 18.4207C12.9936 18.8404 12.2934 19.0237 11.5393 19C10.0071 18.9468 8.54081 17.865 8.21763 16.0501C5.49449 16.0501 2.77136 16.0501 0.0302734 16.0501C0.0302734 15.7191 0.0302734 15.4117 0.0302734 15.0806C2.75341 15.0806 5.47654 15.0806 8.19967 15.0806C8.27748 14.8205 8.33134 14.5722 8.42111 14.3417C8.95976 12.9229 10.4081 12.0006 11.8983 12.1189C13.4903 12.243 14.7831 13.3485 15.0883 14.8678C15.1242 15.0392 15.1841 15.0747 15.3457 15.0747C17.8055 15.0688 20.2652 15.0688 22.725 15.0747C22.8148 15.0747 22.9046 15.0806 22.9944 15.0806C23.0004 15.3998 23.0003 15.725 23.0003 16.0501ZM11.6829 18.0246C13.0714 18.0128 14.1726 16.9132 14.1666 15.5535C14.1606 14.188 13.0415 13.0825 11.6709 13.0943C10.2884 13.1002 9.16923 14.2293 9.1812 15.5949C9.19317 16.925 10.3303 18.0364 11.6829 18.0246Z" fill="white"/>
</svg>
