<svg width="8" height="7" viewBox="0 0 8 7" fill="none" xmlns="http://www.w3.org/2000/svg">
<path d="M0.94333 4.35558L5.48709 0.377181C5.76315 0.135676 6.13757 -2.54467e-09 6.52797 0C6.91838 2.54467e-09 7.2928 0.135676 7.56885 0.377181C7.84491 0.618686 8 0.946237 8 1.28778C8 1.62932 7.84491 1.95687 7.56885 2.19837L3.02125 6.17341C2.98022 6.20963 2.93031 6.23721 2.87529 6.25405L0.50931 6.97984C0.468659 6.99275 0.425807 6.99957 0.382561 7C0.321358 6.99979 0.261099 6.98678 0.206806 6.96207C0.152512 6.93736 0.105756 6.90165 0.0704315 6.85792C0.0351072 6.8142 0.012238 6.76372 0.00372962 6.7107C-0.00477877 6.65768 0.00132008 6.60365 0.0215176 6.5531L0.851148 4.48326C0.870403 4.43513 0.901926 4.39147 0.94333 4.35558ZM1.00862 6.11629L2.54498 5.64587L7.02345 1.72123C7.15486 1.60627 7.22868 1.45035 7.22868 1.28778C7.22868 1.1252 7.15486 0.96928 7.02345 0.85432C6.89204 0.73936 6.71381 0.674776 6.52797 0.674776C6.34214 0.674776 6.16391 0.73936 6.0325 0.85432L1.53483 4.77559L1.00862 6.11629Z" fill="white" fill-opacity="0.8"/>
</svg>
