<svg width="31" height="22" viewBox="0 0 31 22" fill="none" xmlns="http://www.w3.org/2000/svg">
<path d="M30.9999 3.15653C25.2647 8.65653 19.5789 14.2044 13.8436 19.7522C13.1514 20.4217 12.4592 21.0913 11.7671 21.7609C11.421 22.0957 11.2232 22.0957 10.8771 21.7609C7.36673 18.3174 3.80693 14.8739 0.247118 11.4304C-0.0989743 11.0957 -0.0989743 10.9044 0.247118 10.5696C1.03819 9.80435 1.82926 9.03914 2.62032 8.27392C2.96642 7.93914 3.16418 7.93914 3.51028 8.27392C6.03181 10.713 8.55334 13.1522 11.0749 15.5913C11.1738 15.687 11.2232 15.7826 11.2726 15.8783C11.3715 15.7826 11.4704 15.687 11.5693 15.6391C16.8596 10.5217 22.1004 5.45218 27.3907 0.334789C27.8356 -0.0956458 27.984 -0.0956458 28.4289 0.334789C29.1706 1.05218 29.9122 1.76957 30.6538 2.48696C30.7527 2.58261 30.901 2.72609 30.9999 2.86957C30.9999 2.96522 30.9999 3.06088 30.9999 3.15653Z" fill="white"/>
</svg>
