<svg width="25" height="23" viewBox="0 0 25 23" fill="none" xmlns="http://www.w3.org/2000/svg">
<path d="M13.6455 1.05571C13.4085 1.13933 13.2184 1.30891 13.1174 1.52728C13.0001 1.78281 12.9954 1.86644 12.9931 3.86887V5.72728L12.1411 5.7296C11.4159 5.7296 11.2282 5.73889 10.8597 5.78303C9.85051 5.90383 9.01969 6.10825 8.11143 6.46135C4.61214 7.82263 2.00469 10.9401 1.23724 14.6848C1.09173 15.3817 1.02837 15.9625 1.00724 16.7383C0.981428 17.7837 1.10582 18.8802 1.36398 19.8744C1.4602 20.2461 1.9601 21.9117 1.98357 21.9349C1.99061 21.9442 2.12908 21.5214 2.28633 20.9941C2.6548 19.7745 2.79796 19.3866 3.12184 18.7199C4.3 16.3039 6.41694 14.4455 8.9352 13.6139C10.0782 13.2352 11.1812 13.0819 12.4814 13.1191L12.9907 13.133L13.0001 14.9821C13.0071 16.9776 13.0048 16.9172 13.1339 17.1681C13.2606 17.4143 13.4366 17.556 13.6971 17.6234C13.953 17.6884 14.2346 17.6327 14.5021 17.4631C14.7251 17.3214 23.5355 10.3315 23.6505 10.206C23.8617 9.97374 23.9979 9.62529 24.0002 9.32562C24.0002 9.18624 23.9275 8.89354 23.8641 8.76577C23.7162 8.48004 23.8078 8.5567 19.0998 4.82827C16.6191 2.86301 14.5373 1.22528 14.4763 1.18812C14.2276 1.03712 13.8638 0.979046 13.6455 1.05571ZM18.499 5.67152C21.1299 7.75759 22.8995 9.17462 22.9159 9.21179C22.9605 9.30471 22.9488 9.41854 22.8925 9.49055C22.8643 9.5254 20.8623 11.1213 18.445 13.0378L14.0492 16.5177V14.3247V12.1318L13.5868 12.1132C12.8569 12.083 11.3596 12.0877 11.0216 12.1225C9.14174 12.3177 7.46602 12.917 5.95224 13.9345C4.42204 14.9636 3.17582 16.362 2.30275 18.0346L2.13378 18.3552L2.11969 18.2436C2.01643 17.4608 2.02582 16.4178 2.14082 15.5652C2.5351 12.6405 4.19204 10.0016 6.65633 8.37086C7.73592 7.65537 9.00796 7.14431 10.2753 6.91433C10.9677 6.78889 11.1742 6.77263 12.2186 6.77263C12.7537 6.77263 13.385 6.7796 13.622 6.79121L14.0492 6.80748V4.48447C14.0492 2.6307 14.0562 2.16146 14.0797 2.1754C14.0938 2.18469 16.084 3.75969 18.499 5.67152Z" fill="white" stroke="white" stroke-width="0.5"/>
</svg>
