<svg width="13" height="13" viewBox="0 0 13 13" fill="none" xmlns="http://www.w3.org/2000/svg">
<path d="M12.2815 5.34371L8.81261 8.8125C7.85447 9.77077 6.3021 9.77077 5.34388 8.8125L4.18767 7.65614L5.34388 6.50006L6.50018 7.65614C6.81956 7.9749 7.33777 7.97555 7.65653 7.65614L11.1252 4.18749C11.4438 3.86849 11.4438 3.34985 11.1252 3.03076L9.96898 1.87454C9.65022 1.556 9.1314 1.556 8.81261 1.87454L7.57423 3.11313C7.00013 2.77525 6.34765 2.63035 5.70166 2.67387L7.65653 0.718325C8.61467 -0.239442 10.1678 -0.239442 11.1252 0.718325L12.2816 1.87454C13.2397 2.83236 13.2397 4.38594 12.2815 5.34371ZM5.42539 9.88742L4.18769 11.125C3.86831 11.4444 3.3501 11.4437 3.03148 11.125L1.87518 9.96882C1.5558 9.65009 1.5558 9.13185 1.87518 8.81247L5.34391 5.34368C5.66259 5.02514 6.18163 5.02514 6.5002 5.34368L7.65655 6.50003L8.81263 5.34368L7.65655 4.18746C6.69828 3.2297 5.14592 3.2297 4.18772 4.18746L0.718912 7.65614C-0.239312 8.61456 -0.239312 10.1677 0.718912 11.125L1.87518 12.2813C2.83265 13.2396 4.38574 13.2396 5.34391 12.2813L7.29864 10.3265C6.65271 10.3695 6.00192 10.2244 5.42539 9.88742Z" fill="white"/>
</svg>
