<svg width="134" height="147" viewBox="0 0 134 147" fill="none" xmlns="http://www.w3.org/2000/svg">
<path d="M44.1252 24.3859C45.4128 20.9151 40.2264 18.2608 38.9687 21.7478C33.3481 37.3573 37.0135 55.239 49.0728 66.5459C44.3552 71.028 42.7699 76.7532 44.6529 84.0169C46.7572 92.1273 51.9998 99.1274 58.1303 104.681C73.4721 118.572 94.5182 125.921 114.962 127.045C117.094 127.162 116.863 123.895 114.778 123.747C100.225 122.711 86.0166 118.291 73.5019 110.771C62.3564 104.072 49.76 93.2851 48.7041 79.3197C48.3993 75.1948 50.2646 72.1418 53.0389 69.7855C59.5206 74.4518 67.1836 77.3085 75.1802 77.7405C82.6519 78.1408 91.9323 75.495 92.9766 66.7972C93.8979 59.115 86.3342 55.7175 79.8747 55.5691C70.8198 55.363 61.2655 58.492 53.5759 63.1701C42.9196 53.6236 39.0675 38.0109 44.1252 24.3859ZM83.4056 61.4801C86.8513 62.4618 88.6643 65.3503 86.4778 68.6156C84.2461 71.9477 79.7212 72.3402 76.0551 72.2493C69.7072 72.0914 63.4071 69.9482 58.0627 66.5507C59.8072 65.6715 61.6118 64.9271 63.3057 64.2703C69.1594 62.0029 77.1277 59.6955 83.4056 61.4801Z" fill="#F25353"/>
<path d="M40.2786 3.25266C35.6913 12.6344 31.2458 22.2834 27.7878 32.1435C27.0265 34.3235 30.3584 35.2205 31.4174 33.4424C35.885 25.936 39.8456 18.0286 43.6559 10.1351C48.0949 15.7755 51.698 22.0261 54.3542 28.6941C55.7179 32.1086 61.154 30.3297 59.8065 26.8601C56.2963 17.8187 51.3274 9.69817 44.9707 2.38224C43.6856 0.90326 41.0491 1.67725 40.2786 3.25266Z" fill="#F25353"/>
</svg>
