<svg width="94" height="161" viewBox="0 0 94 161" fill="none" xmlns="http://www.w3.org/2000/svg">
<path d="M20.6597 131.194C16.934 132.319 18.002 138.35 21.7223 137.19C38.3703 131.991 51.0279 117.569 52.8477 100.287C59.5982 101.395 65.402 99.0888 70.2935 92.9002C75.754 85.9885 78.292 77.1519 79.0541 68.4895C80.9561 46.8158 73.7541 24.5154 61.7196 6.67012C60.464 4.81018 57.8729 7.07721 59.0724 8.91757C67.4423 21.7708 72.7571 36.4827 74.3999 51.7428C75.8617 65.3345 74.8181 82.7373 63.7858 92.487C60.5228 95.3608 56.7804 95.7357 53.0448 94.9067C52.8407 86.5132 50.3701 78.2785 45.6561 71.3034C41.2487 64.7883 33.1407 58.691 25.1894 63.3371C18.1672 67.4416 20.1213 75.9363 24.0974 81.4434C29.6724 89.162 38.3592 95.1818 47.1605 98.656C45.9252 113.645 35.2875 126.784 20.6597 131.194ZM26.8092 74.7324C25.4446 71.2219 26.7142 67.8691 30.8384 67.6286C35.0472 67.3836 38.2484 70.9262 40.4993 74.0559C44.3965 79.4754 46.5998 86.1152 47.1453 92.7503C45.3011 91.8465 43.5318 90.8069 41.9062 89.8043C36.2904 86.3384 29.2989 81.1259 26.8092 74.7324Z" fill="#F25353"/>
<path d="M5.39247 147.833C16.166 145.721 27.0734 143.322 37.5308 139.96C39.8409 139.214 38.4776 135.853 36.3153 136.094C27.1893 137.115 18.0491 138.816 9.0159 140.634C10.9246 133.334 13.8752 126.347 17.7767 119.888C19.7724 116.578 14.831 113.152 12.779 116.483C7.43075 125.164 3.78012 134.483 1.6847 144.453C1.26112 146.469 3.58328 148.187 5.39247 147.833Z" fill="#F25353"/>
</svg>
