<svg width="134" height="148" viewBox="0 0 134 148" fill="none" xmlns="http://www.w3.org/2000/svg">
<path d="M89.9461 123.093C88.6585 126.564 93.8449 129.218 95.1025 125.731C100.723 110.122 97.0578 92.2401 84.9985 80.9332C89.7161 76.4511 91.3014 70.7259 89.4184 63.4622C87.3141 55.3518 82.0715 48.3517 75.941 42.7982C60.5992 28.9068 39.5531 21.5586 19.1093 20.4337C16.9778 20.3174 17.2084 23.5843 19.2929 23.7318C33.8465 24.7681 48.0547 29.1885 60.5694 36.7081C71.7149 43.4067 84.3113 54.194 85.3671 68.1594C85.672 72.2843 83.8067 75.3373 81.0324 77.6936C74.5507 73.0273 66.8877 70.1707 58.8911 69.7387C51.4194 69.3384 42.1389 71.9841 41.0947 80.6819C40.1734 88.3641 47.7371 91.7617 54.1966 91.91C63.2515 92.1162 72.8057 88.9871 80.4954 84.309C91.1517 93.8555 95.0038 109.468 89.9461 123.093ZM50.6657 85.999C47.22 85.0173 45.407 82.1288 47.5935 78.8635C49.8252 75.5315 54.3501 75.139 58.0162 75.2298C64.364 75.3877 70.6642 77.5309 76.0086 80.9284C74.2641 81.8076 72.4595 82.5521 70.7656 83.2088C64.9119 85.4763 56.9436 87.7836 50.6657 85.999Z" fill="#F25353"/>
<path d="M93.7927 144.226C98.38 134.845 102.826 125.196 106.283 115.336C107.045 113.155 103.713 112.258 102.654 114.037C98.1863 121.543 94.2257 129.45 90.4154 137.344C85.9764 131.704 82.3733 125.453 79.7171 118.785C78.3534 115.37 72.9173 117.149 74.2648 120.619C77.775 129.66 82.7439 137.781 89.1006 145.097C90.3857 146.576 93.0222 145.802 93.7927 144.226Z" fill="#F25353"/>
</svg>
